<svg xmlns="http://www.w3.org/2000/svg" version="1.1" xmlnsXlink="http://www.w3.org/1999/xlink" xmlnsSvgjs="http://svgjs.dev/svgjs" width="765" height="625" viewBox="0 0 440.0039978027344 300" class="svg-animations " style="background-color: rgb(135, 0, 255);"><svg viewBox="0 0 135 140" width="100" height="100" style="fill: rgb(255, 255, 255);" x="36.66699981689453" y="100"><svg width="135" height="135" viewBox="0 0 135 135" xmlns="http://www.w3.org/2000/svg">
<g clip-path="url(#clip0)">
<path d="M85.9282 46.8209C90.6669 51.5596 98.4331 51.5596 103.172 46.8209L122.127 27.8661C109.859 10.9911 89.9693 0 67.5 0C59.1941 0 51.2436 1.51375 43.8855 4.25166C44.3857 5.08093 44.978 5.87071 45.6888 6.58151L85.9282 46.8209Z"/>
<path d="M49.5324 87.9027C44.7938 83.164 37.0276 83.164 32.2889 87.9027L12.9524 107.239C25.2335 124.061 45.0833 135 67.5 135C76.0033 135 84.1249 133.407 91.6146 130.551C91.1013 129.695 90.4958 128.879 89.7718 128.142L49.5324 87.9027Z"/>
<path d="M135 67.4998C135 59.1018 133.447 51.0592 130.643 43.6353C129.88 44.1091 129.169 44.662 128.511 45.3201L88.2713 85.5595C83.5326 90.2982 83.5326 98.0644 88.2713 102.803L107.397 121.929C124.127 109.648 135 89.8506 135 67.4998Z"/>
<path d="M47.1894 49.1638C51.9281 44.4251 51.9281 36.6589 47.1894 31.9202L28.0241 12.7549C11.0569 25.0228 0 44.9648 0 67.4999C0 75.8979 1.55324 83.9405 4.35696 91.3645C5.29154 90.838 6.17346 90.193 6.96324 89.4032L47.1894 49.1638Z"/>
</g>
</svg></svg><svg style="fill: rgb(255, 255, 255);" x="146.66699981689453" y="130.58499908447266"><path d="M2.64 3.25L5.66 3.25L5.66 26L2.64 26L2.64 3.25ZM5 13.48L15.19 13.48L15.19 15.95L5 15.95L5 13.48ZM5 3.25L16.73 3.25L16.73 5.72L5 5.72L5 3.25ZM20.13 9.09L23.03 9.09L23.03 26L20.13 26L20.13 9.09ZM19.91 4.61L19.91 4.61Q19.91 3.91 20.34 3.42Q20.77 2.94 21.61 2.94L21.61 2.94Q22.44 2.94 22.88 3.42Q23.33 3.91 23.33 4.61L23.33 4.61Q23.33 5.28 22.88 5.76Q22.44 6.23 21.61 6.23L21.61 6.23Q20.77 6.23 20.34 5.76Q19.91 5.28 19.91 4.61ZM27.91 2L30.81 2L30.81 26L27.91 26L27.91 2ZM38.17 9.09L38.33 12.45L38.33 26L35.42 26L35.42 9.09L38.17 9.09ZM37.73 16.91L37.73 16.91L36.39 16.86Q36.41 15.13 36.84 13.65Q37.28 12.17 38.14 11.08Q39 9.98 40.28 9.38Q41.56 8.78 43.25 8.78L43.25 8.78Q44.44 8.78 45.44 9.12Q46.44 9.45 47.17 10.17Q47.91 10.89 48.31 12.02Q48.72 13.14 48.72 14.73L48.72 14.73L48.72 26L45.83 26L45.83 14.88Q45.83 13.55 45.38 12.75Q44.94 11.95 44.13 11.59Q43.31 11.22 42.22 11.22L42.22 11.22Q40.94 11.22 40.08 11.67Q39.22 12.13 38.70 12.92Q38.19 13.72 37.96 14.74Q37.73 15.77 37.73 16.91ZM48.69 15.31L48.69 15.31L46.75 15.91Q46.77 14.52 47.21 13.23Q47.66 11.95 48.51 10.95Q49.36 9.95 50.61 9.37Q51.86 8.78 53.47 8.78L53.47 8.78Q54.83 8.78 55.88 9.14Q56.94 9.50 57.66 10.24Q58.39 10.98 58.77 12.14Q59.14 13.30 59.14 14.89L59.14 14.89L59.14 26L56.23 26L56.23 14.86Q56.23 13.44 55.79 12.65Q55.34 11.86 54.54 11.54Q53.73 11.22 52.63 11.22L52.63 11.22Q51.67 11.22 50.94 11.55Q50.20 11.88 49.70 12.45Q49.20 13.02 48.95 13.75Q48.69 14.48 48.69 15.31ZM84.02 20.25L84.02 20.25Q84.02 19.45 83.77 18.84Q83.53 18.22 82.93 17.72Q82.33 17.22 81.27 16.77Q80.22 16.31 78.61 15.84L78.61 15.84Q76.92 15.34 75.56 14.73Q74.20 14.11 73.23 13.31Q72.27 12.52 71.75 11.48Q71.23 10.45 71.23 9.13L71.23 9.13Q71.23 7.80 71.78 6.67Q72.33 5.55 73.35 4.71Q74.38 3.88 75.80 3.41Q77.22 2.94 78.97 2.94L78.97 2.94Q81.53 2.94 83.32 3.91Q85.11 4.89 86.05 6.46Q86.98 8.03 86.98 9.81L86.98 9.81L83.98 9.81Q83.98 8.53 83.44 7.54Q82.89 6.55 81.78 5.98Q80.67 5.41 78.97 5.41L78.97 5.41Q77.36 5.41 76.31 5.89Q75.27 6.38 74.76 7.20Q74.25 8.03 74.25 9.09L74.25 9.09Q74.25 9.81 74.55 10.40Q74.86 10.98 75.51 11.48Q76.16 11.98 77.16 12.41Q78.17 12.83 79.58 13.22L79.58 13.22Q81.52 13.77 82.92 14.44Q84.33 15.11 85.24 15.95Q86.16 16.78 86.60 17.84Q87.05 18.89 87.05 20.22L87.05 20.22Q87.05 21.61 86.48 22.73Q85.92 23.86 84.88 24.66Q83.83 25.45 82.37 25.88Q80.91 26.31 79.11 26.31L79.11 26.31Q77.53 26.31 76.01 25.88Q74.48 25.44 73.24 24.56Q72 23.69 71.26 22.40Q70.52 21.11 70.52 19.41L70.52 19.41L73.52 19.41Q73.52 20.58 73.97 21.41Q74.42 22.25 75.21 22.80Q76 23.34 77.01 23.60Q78.02 23.86 79.11 23.86L79.11 23.86Q80.69 23.86 81.78 23.42Q82.88 22.98 83.45 22.17Q84.02 21.36 84.02 20.25ZM89.69 17.73L89.69 17.73L89.69 17.38Q89.69 15.55 90.22 13.98Q90.75 12.41 91.75 11.24Q92.75 10.08 94.17 9.43Q95.59 8.78 97.36 8.78L97.36 8.78Q99.14 8.78 100.57 9.43Q102 10.08 103.01 11.24Q104.02 12.41 104.55 13.98Q105.08 15.55 105.08 17.38L105.08 17.38L105.08 17.73Q105.08 19.56 104.55 21.13Q104.02 22.69 103.01 23.85Q102 25.02 100.59 25.66Q99.17 26.31 97.39 26.31L97.39 26.31Q95.61 26.31 94.19 25.66Q92.77 25.02 91.76 23.85Q90.75 22.69 90.22 21.13Q89.69 19.56 89.69 17.73ZM92.58 17.38L92.58 17.38L92.58 17.73Q92.58 19 92.88 20.12Q93.17 21.23 93.77 22.09Q94.38 22.95 95.28 23.45Q96.19 23.94 97.39 23.94L97.39 23.94Q98.58 23.94 99.48 23.45Q100.38 22.95 100.97 22.09Q101.56 21.23 101.87 20.12Q102.17 19 102.17 17.73L102.17 17.73L102.17 17.38Q102.17 16.13 101.87 15.01Q101.56 13.89 100.96 13.02Q100.36 12.16 99.46 11.66Q98.56 11.16 97.36 11.16L97.36 11.16Q96.17 11.16 95.27 11.66Q94.38 12.16 93.77 13.02Q93.17 13.89 92.88 15.01Q92.58 16.13 92.58 17.38ZM115.47 23.94L115.47 23.94Q116.50 23.94 117.38 23.52Q118.25 23.09 118.81 22.35Q119.38 21.61 119.45 20.66L119.45 20.66L122.20 20.66Q122.13 22.16 121.20 23.45Q120.27 24.73 118.77 25.52Q117.27 26.31 115.47 26.31L115.47 26.31Q113.56 26.31 112.15 25.64Q110.73 24.97 109.80 23.80Q108.88 22.63 108.41 21.10Q107.95 19.58 107.95 17.88L107.95 17.88L107.95 17.22Q107.95 15.52 108.41 13.99Q108.88 12.47 109.80 11.30Q110.73 10.13 112.15 9.45Q113.56 8.78 115.47 8.78L115.47 8.78Q117.45 8.78 118.94 9.59Q120.42 10.39 121.27 11.77Q122.13 13.16 122.20 14.91L122.20 14.91L119.45 14.91Q119.38 13.86 118.87 13.02Q118.36 12.17 117.49 11.66Q116.63 11.16 115.47 11.16L115.47 11.16Q114.14 11.16 113.24 11.68Q112.34 12.20 111.82 13.09Q111.30 13.97 111.07 15.04Q110.84 16.11 110.84 17.22L110.84 17.22L110.84 17.88Q110.84 18.98 111.06 20.06Q111.28 21.14 111.80 22.02Q112.33 22.89 113.23 23.41Q114.13 23.94 115.47 23.94ZM125.69 9.09L128.59 9.09L128.59 26L125.69 26L125.69 9.09ZM125.47 4.61L125.47 4.61Q125.47 3.91 125.90 3.42Q126.33 2.94 127.17 2.94L127.17 2.94Q128 2.94 128.45 3.42Q128.89 3.91 128.89 4.61L128.89 4.61Q128.89 5.28 128.45 5.76Q128 6.23 127.17 6.23L127.17 6.23Q126.33 6.23 125.90 5.76Q125.47 5.28 125.47 4.61ZM140.25 26.31L140.25 26.31Q138.48 26.31 137.05 25.71Q135.63 25.11 134.60 24.02Q133.58 22.92 133.03 21.42Q132.48 19.92 132.48 18.14L132.48 18.14L132.48 17.48Q132.48 15.42 133.09 13.80Q133.70 12.19 134.75 11.06Q135.80 9.94 137.13 9.36Q138.45 8.78 139.88 8.78L139.88 8.78Q141.69 8.78 143.01 9.41Q144.33 10.03 145.17 11.15Q146.02 12.27 146.42 13.77Q146.83 15.28 146.83 17.06L146.83 17.06L146.83 18.36L134.20 18.36L134.20 16L143.94 16L143.94 15.78Q143.88 14.66 143.48 13.59Q143.08 12.53 142.22 11.84Q141.36 11.16 139.88 11.16L139.88 11.16Q138.89 11.16 138.06 11.57Q137.23 11.98 136.64 12.80Q136.05 13.61 135.72 14.78Q135.39 15.95 135.39 17.48L135.39 17.48L135.39 18.14Q135.39 19.34 135.73 20.40Q136.06 21.45 136.71 22.25Q137.36 23.05 138.29 23.50Q139.22 23.95 140.41 23.95L140.41 23.95Q141.94 23.95 143 23.33Q144.06 22.70 144.86 21.66L144.86 21.66L146.61 23.05Q146.06 23.88 145.22 24.63Q144.38 25.38 143.15 25.84Q141.92 26.31 140.25 26.31ZM148.14 9.09L157.28 9.09L157.28 11.31L148.14 11.31L148.14 9.09ZM151.23 21.80L151.23 4.98L154.13 4.98L154.13 21.81Q154.13 22.67 154.39 23.11Q154.66 23.55 155.08 23.69Q155.50 23.83 155.98 23.83L155.98 23.83Q156.34 23.83 156.74 23.76Q157.14 23.69 157.34 23.64L157.34 23.64L157.36 26Q157.02 26.11 156.46 26.21Q155.91 26.31 155.13 26.31L155.13 26.31Q154.06 26.31 153.17 25.89Q152.28 25.47 151.76 24.48Q151.23 23.48 151.23 21.80L151.23 21.80ZM164.22 27.53L165.42 24.25L170.13 9.09L173.22 9.09L166.44 28.61Q166.20 29.23 165.82 29.96Q165.44 30.69 164.84 31.34Q164.25 32 163.41 32.41Q162.58 32.83 161.42 32.83L161.42 32.83Q161.08 32.83 160.55 32.73Q160.02 32.64 159.80 32.58L159.80 32.58L159.78 30.23Q159.91 30.25 160.18 30.27Q160.45 30.30 160.56 30.30L160.56 30.30Q161.55 30.30 162.23 30.04Q162.92 29.78 163.40 29.18Q163.88 28.58 164.22 27.53L164.22 27.53ZM158.81 9.09L161.97 9.09L166.36 22.22L167.11 25.27L165.03 26.33L158.81 9.09ZM197.92 18.77L197.92 18.77L200.92 18.77Q200.69 20.92 199.69 22.63Q198.69 24.33 196.86 25.32Q195.03 26.31 192.30 26.31L192.30 26.31Q190.30 26.31 188.66 25.56Q187.03 24.81 185.86 23.43Q184.69 22.05 184.05 20.10Q183.42 18.16 183.42 15.77L183.42 15.77L183.42 13.50Q183.42 11.11 184.05 9.16Q184.69 7.22 185.88 5.83Q187.08 4.44 188.77 3.69Q190.45 2.94 192.56 2.94L192.56 2.94Q195.14 2.94 196.92 3.91Q198.70 4.88 199.70 6.59Q200.69 8.30 200.92 10.55L200.92 10.55L197.92 10.55Q197.70 8.95 197.11 7.80Q196.52 6.66 195.42 6.03Q194.33 5.41 192.56 5.41L192.56 5.41Q191.05 5.41 189.90 5.98Q188.75 6.56 187.98 7.63Q187.20 8.69 186.81 10.17Q186.42 11.66 186.42 13.47L186.42 13.47L186.42 15.77Q186.42 17.44 186.77 18.91Q187.13 20.38 187.84 21.48Q188.56 22.59 189.67 23.23Q190.78 23.86 192.30 23.86L192.30 23.86Q194.22 23.86 195.36 23.25Q196.50 22.64 197.09 21.50Q197.67 20.36 197.92 18.77ZM204.81 2L207.72 2L207.72 26L204.81 26L204.81 2ZM222.84 26L222.70 22.09L222.70 9.09L225.61 9.09L225.61 26L222.84 26ZM223.25 18.53L223.25 18.53L224.45 18.50Q224.45 20.19 224.10 21.62Q223.75 23.05 222.97 24.09Q222.19 25.14 220.92 25.73Q219.66 26.31 217.84 26.31L217.84 26.31Q216.61 26.31 215.59 25.95Q214.56 25.59 213.83 24.84Q213.09 24.09 212.70 22.89Q212.30 21.69 212.30 20L212.30 20L212.30 9.09L215.19 9.09L215.19 20.03Q215.19 21.17 215.45 21.91Q215.70 22.66 216.15 23.09Q216.59 23.52 217.15 23.69Q217.70 23.86 218.30 23.86L218.30 23.86Q220.14 23.86 221.22 23.15Q222.30 22.44 222.77 21.23Q223.25 20.02 223.25 18.53ZM229.98 26L229.98 2L232.89 2L232.89 22.72L232.64 26L229.98 26ZM244.31 17.41L244.31 17.41L244.31 17.73Q244.31 19.58 243.88 21.15Q243.44 22.72 242.59 23.88Q241.75 25.03 240.53 25.67Q239.31 26.31 237.73 26.31L237.73 26.31Q236.13 26.31 234.91 25.76Q233.70 25.20 232.88 24.16Q232.05 23.11 231.55 21.63Q231.06 20.14 230.88 18.28L230.88 18.28L230.88 16.84Q231.06 14.97 231.55 13.48Q232.05 12 232.88 10.95Q233.70 9.89 234.91 9.34Q236.11 8.78 237.70 8.78L237.70 8.78Q239.30 8.78 240.53 9.40Q241.77 10.02 242.60 11.16Q243.44 12.30 243.88 13.88Q244.31 15.47 244.31 17.41ZM241.41 17.73L241.41 17.73L241.41 17.41Q241.41 16.14 241.17 15.02Q240.94 13.91 240.42 13.05Q239.91 12.20 239.06 11.71Q238.22 11.22 236.98 11.22L236.98 11.22Q235.89 11.22 235.09 11.59Q234.28 11.97 233.72 12.60Q233.16 13.23 232.80 14.04Q232.45 14.84 232.28 15.70L232.28 15.70L232.28 19.47Q232.53 20.56 233.10 21.57Q233.67 22.58 234.63 23.22Q235.59 23.86 237.02 23.86L237.02 23.86Q238.19 23.86 239.02 23.38Q239.86 22.91 240.38 22.06Q240.91 21.22 241.16 20.11Q241.41 19 241.41 17.73Z"/></svg><text fill="#ffffff" font-family="Verdana" font-size="16px" x="270.0019989013672" y="169.41500091552734"><tspan dy="0" x="270.0019989013672"></tspan></text></svg>